PathFileType	4	(X/Y/Z)	/Users/niels/Desktop/University/Third Semester/Perception and Action/Exam/Gymnastics Motion Tracking/Code for Gym Tracking/Analyzed Data/Webcam_Backflip/id5_7_trajectory_Sports2D/id5_7_trajectory_Sports2D_px_person00.trc
DataRate	CameraRate	NumFrames	NumMarkers	Units	OrigDataRate	OrigDataStartFrame	OrigNumFrames
29.77272727272727	29.77272727272727	10	22	m	29.77272727272727	49	132
Frame#	Time	Hip			RHip			RKnee			RAnkle			RBigToe			RSmallToe			RHeel			LHip			LKnee			LAnkle			LBigToe			LSmallToe			LHeel			Neck			Head			Nose			RShoulder			RElbow			RWrist			LShoulder			LElbow			LWrist		
		X1	Y1	Z1	X2	Y2	Z2	X3	Y3	Z3	X4	Y4	Z4	X5	Y5	Z5	X6	Y6	Z6	X7	Y7	Z7	X8	Y8	Z8	X9	Y9	Z9	X10	Y10	Z10	X11	Y11	Z11	X12	Y12	Z12	X13	Y13	Z13	X14	Y14	Z14	X15	Y15	Z15	X16	Y16	Z16	X17	Y17	Z17	X18	Y18	Z18	X19	Y19	Z19	X20	Y20	Z20	X21	Y21	Z21	X22	Y22	Z22
49	1.6458015267175574	1.184943958543909	-0.8676135831129136	0.0	1.1854264497125495	-0.8691378273363677	0.0	1.311242400859985	-0.9494222327091134	0.0	1.234364168746541	-1.0655206630448364	0.0	1.2818360704095562	-1.0929198856317883	0.0	1.2756359932965011	-1.0908815609130713	0.0	1.214548355594928	-1.0735275491389291	0.0	1.1900808939094076	-0.8647759920687886	0.0	1.289212245471742	-0.9381435156780771	0.0	1.2200255278912233	-1.0528156407306681	0.0	1.269701337083699	-1.0655051677070257	0.0	1.2516001230559544	-1.0642182287447388	0.0	1.202736256627101	-1.0626881552355187	0.0	1.2779909719295146	-0.714676348468267	0.0	1.350639019420222	-0.6619584282371125	0.0	1.3272115631314854	-0.7148928578970418	0.0	1.2645991350779908	-0.7233824064820309	0.0	1.3160487822854428	-0.7626725675765276	0.0	1.4128529698305388	-0.772937619162423	0.0	1.256875154705004	-0.7139373621281669	0.0	1.3113215900872224	-0.7592891515954977	0.0	1.37603707756374	-0.7674167622158578	0.0
50	1.6793893129770994	1.1869786982903714	-0.8581095716396856	0.0	1.188633393077661	-0.8597274488133959	0.0	1.3077642031257781	-0.95054839449242	0.0	1.2339876026646126	-1.0675085019008077	0.0	1.2812261866666412	-1.0957047546282053	0.0	1.2760844431918026	-1.0938905815869415	0.0	1.2136696206880173	-1.075127786112959	0.0	1.1903528209633898	-0.8559230892422667	0.0	1.2837350381772354	-0.9418349215227715	0.0	1.219362594653176	-1.0575693941240556	0.0	1.2685580863918262	-1.0699037140150265	0.0	1.2507091732279183	-1.0698235790042012	0.0	1.202377369609883	-1.0680728931384176	0.0	1.2759900912069204	-0.6997743696753445	0.0	1.3477685930470564	-0.6454891938139683	0.0	1.3250218778739178	-0.6988585470781573	0.0	1.2622137362548789	-0.7079920263005793	0.0	1.310041717447058	-0.7448723813148571	0.0	1.4075395941922217	-0.7524893368327595	0.0	1.2551533531179435	-0.6988320186279728	0.0	1.3117144417995563	-0.7380593361363714	0.0	1.374749930700513	-0.7397303987652004	0.0
51	1.7129770992366413	1.189656579606434	-0.84927110598373	0.0	1.1918764027234388	-0.8509857169194264	0.0	1.3053327297092956	-0.9500647905009383	0.0	1.2338949187654327	-1.0680637253344194	0.0	1.2811395012220805	-1.0957309402323776	0.0	1.2765160867178724	-1.0952279487787495	0.0	1.2128960909311897	-1.0758359916650304	0.0	1.1915521257406487	-0.8477083008343739	0.0	1.2796264267317585	-0.9433311146470198	0.0	1.2193006280017236	-1.0598405024299529	0.0	1.2689433140315958	-1.0716164694239145	0.0	1.2525315730933149	-1.0720559502567701	0.0	1.202270314718292	-1.071073788580198	0.0	1.273658822622877	-0.6862728859142848	0.0	1.3450598124891662	-0.6305465555600754	0.0	1.322649071782232	-0.6845826939659035	0.0	1.2595518088074753	-0.6937535810901484	0.0	1.3038917287314387	-0.7293280078395468	0.0	1.4015137361860952	-0.7345204210077159	0.0	1.2528497123633802	-0.6852469455405675	0.0	1.3084561773435872	-0.7198223600535439	0.0	1.3703255503355616	-0.7159923098409161	0.0
52	1.7465648854961833	1.192843176237383	-0.8406515887225529	0.0	1.1950770567792857	-0.84249123450942	0.0	1.3036550628989803	-0.9479538476465781	0.0	1.2339219891948303	-1.0673541332527994	0.0	1.2815353171091513	-1.0933695932751661	0.0	1.2770364428798386	-1.094678830076398	0.0	1.2122210355396508	-1.0758373778120542	0.0	1.1936997657748318	-0.8396732973262009	0.0	1.2768400430559506	-0.9423763707053209	0.0	1.2195742014659026	-1.0597302300138987	0.0	1.270514076082295	-1.0708224956717014	0.0	1.2560971737822215	-1.0709636812741676	0.0	1.202259034686938	-1.0717281074734752	0.0	1.2710419217387137	-0.6738573326880911	0.0	1.3423074927926582	-0.6167923208747051	0.0	1.3199895875238405	-0.671701991486593	0.0	1.2566881912530434	-0.6804592229313335	0.0	1.2975923752879799	-0.7166361360049452	0.0	1.3945927466829149	-0.7206568524727776	0.0	1.2501237229451905	-0.6730217850755421	0.0	1.302573586609444	-0.7055527767140981	0.0	1.364330544259117	-0.697839240430685	0.0
53	1.7801526717557252	1.1962710576471567	-0.8320146522879136	0.0	1.198271589155166	-0.8340123452689221	0.0	1.302136579893016	-0.9448454510447559	0.0	1.2338839390150933	-1.0659270847321625	0.0	1.2822561516345232	-1.0897776609854128	0.0	1.2776313769414123	-1.0927768927828319	0.0	1.2116422366476087	-1.0754898972221247	0.0	1.196413495413999	-0.8315911534883382	0.0	1.2747040263793366	-0.9398267825788851	0.0	1.2198333033097168	-1.0582543575856265	0.0	1.2725521417200707	-1.0686219846184877	0.0	1.2601208168662303	-1.0678946222847132	0.0	1.202140098871497	-1.0709308965916466	0.0	1.2681838198371669	-0.6622305498845742	0.0	1.3391679683354325	-0.6036339617853159	0.0	1.3170105127528675	-0.6595385647558593	0.0	1.2537731299127557	-0.6680383447392124	0.0	1.2910527170746324	-0.7068478330467625	0.0	1.3868110193601626	-0.711587015643668	0.0	1.2471106763442028	-0.6619380934676009	0.0	1.2952366783940636	-0.6954163396744357	0.0	1.3580930224944396	-0.6855859348260332	0.0
54	1.8137404580152672	1.1996950734418097	-0.8234030545299488	0.0	1.201551856467045	-0.8255510997981599	0.0	1.3002255081063274	-0.9414508431498084	0.0	1.2336764236059665	-1.0644264650823525	0.0	1.283143236422321	-1.086154370946799	0.0	1.2782190847674917	-1.0904184085540753	0.0	1.2111818418664242	-1.0751619952400724	0.0	1.1994147061871867	-0.82347477860317	0.0	1.2725797630763305	-0.9367318838139383	0.0	1.2198298482776522	-1.0565822192525423	0.0	1.2743783089510554	-1.0662566555453397	0.0	1.2635563038334818	-1.0645072620766032	0.0	1.2017926345016448	-1.0697379187465845	0.0	1.2651321238165167	-0.6512759610160708	0.0	1.3353608415631342	-0.5906319020685487	0.0	1.3138037404163057	-0.6475166100312462	0.0	1.2509668030527972	-0.6565998271245935	0.0	1.2841336066860094	-0.6997254969666754	0.0	1.3782985672928496	-0.7072356262325223	0.0	1.2439920271952167	-0.6518922668376902	0.0	1.2874711840102344	-0.6890387255771052	0.0	1.3523920323341094	-0.6786505215127092	0.0
55	1.8473282442748094	1.2030004185632772	-0.8150820240509671	0.0	1.204954608974749	-0.8172910173551664	0.0	1.2976409627042693	-0.9382138408821947	0.0	1.233340775777436	-1.0633118791368623	0.0	1.2840972755771745	-1.0832506941756133	0.0	1.2787082044169689	-1.088364818498342	0.0	1.2109279571322187	-1.075081046959285	0.0	1.2026370477238384	-0.8155022998633749	0.0	1.270209651540507	-0.9337540111305518	0.0	1.219593216323289	-1.055411153442651	0.0	1.2757279345248316	-1.064515323313023	0.0	1.2660149505363083	-1.0619117759720322	0.0	1.2013280316909174	-1.0688100380833216	0.0	1.2619711078785865	-0.6410264063750489	0.0	1.3307591126193847	-0.5776597550221255	0.0	1.3105064156689104	-0.6353383317566369	0.0	1.2483362905865936	-0.6463140304461424	0.0	1.276725541308024	-0.6948819939218503	0.0	1.3691682314150722	-0.70699267960092	0.0	1.241070455222536	-0.6429421651239986	0.0	1.2799656615078587	-0.6857692808312152	0.0	1.3473967963162419	-0.6761157467087772	0.0
56	1.8809160305343513	1.2061926402321852	-0.8074136573871326	0.0	1.208405882060926	-0.8095355588034044	0.0	1.294397009204018	-0.935261394071865	0.0	1.2330129120263529	-1.0627501857041115	0.0	1.2850609702978624	-1.0813697114276806	0.0	1.2790041435420914	-1.0870692349216842	0.0	1.2110011192542893	-1.0752917339336634	0.0	1.2060620694296857	-0.80795384059269	0.0	1.2676980163608529	-0.9310777066148528	0.0	1.219378081402538	-1.0548414583890593	0.0	1.2766927405148896	-1.063593010505396	0.0	1.2676830223089393	-1.0604812450440202	0.0	1.201020287284232	-1.0683040071351877	0.0	1.2588255731193327	-0.6315750959469942	0.0	1.3253043561243694	-0.5648731266385931	0.0	1.3071713351494962	-0.622991883309807	0.0	1.2458427734679849	-0.6373615368715054	0.0	1.268845105179876	-0.6918551594757609	0.0	1.3594115091897412	-0.7099712330731129	0.0	1.238662218602941	-0.6352265278827047	0.0	1.2730372823748217	-0.6848302788166761	0.0	1.342748060284448	-0.6770936763448759	0.0
57	1.9145038167938933	1.2093293986269564	-0.800739005251468	0.0	1.2117687751277206	-0.8026381907559029	0.0	1.2906854076775423	-0.9325464993378045	0.0	1.2328070245078462	-1.062691709300146	0.0	1.2860030462514531	-1.0805349646645397	0.0	1.2790517486116362	-1.0866921634145166	0.0	1.2114453293139824	-1.0757197874228566	0.0	1.2096120505322734	-0.801171260751265	0.0	1.2652725994538756	-0.9286381999650808	0.0	1.219437881071075	-1.054678199178946	0.0	1.2774344307568104	-1.0633412610156197	0.0	1.2688941513953802	-1.0601330269484592	0.0	1.2010866015098678	-1.0681021360648582	0.0	1.2558203884150299	-0.623034926665716	0.0	1.3189676985258678	-0.5526430531137684	0.0	1.3037362096858078	-0.6107260022295561	0.0	1.243387211920772	-0.6299177966988965	0.0	1.2606713298830208	-0.6902189681629209	0.0	1.3488830142982553	-0.7152504956269986	0.0	1.236971091864809	-0.6288608309752672	0.0	1.2667472660378163	-0.6854249586371015	0.0	1.337812320858603	-0.6808164550986163	0.0
58	1.9480916030534352	1.2124694762518249	-0.7953030560631419	0.0	1.2149220461695738	-0.7969056271623425	0.0	1.2867420273991925	-0.9300204711481286	0.0	1.2327172501902979	-1.0629513524680085	0.0	1.2868955341961714	-1.0804794777855717	0.0	1.2788744123170384	-1.0870311908081454	0.0	1.2121410436700895	-1.076239391956661	0.0	1.2131911915517253	-0.7954769784599555	0.0	1.2630898334537157	-0.926342122588099	0.0	1.2198783301073528	-1.0547432282580955	0.0	1.2780657407179463	-1.063578246205822	0.0	1.2698248843657285	-1.0605851409105589	0.0	1.2015626806114728	-1.068050234587345	0.0	1.2530525293462085	-0.6155196949367612	0.0	1.3118776618270005	-0.541444271891557	0.0	1.300109899861092	-0.5989658613104374	0.0	1.2408626705226384	-0.6240988984741732	0.0	1.2524699808134458	-0.6896922369390105	0.0	1.337480972537465	-0.7220249641749698	0.0	1.2360684003480529	-0.6238850491135517	0.0	1.2609993284349381	-0.6868993107935628	0.0	1.3320097168365252	-0.6866354108935494	0.0
